<svg xmlns="http://www.w3.org/2000/svg" width="64" height="64" viewBox="0 0 64 64" fill="none">
  <!-- Background circle -->
  <circle cx="32" cy="32" r="32" fill="#DE2228"/>
  <!-- Book icon -->
  <path d="M20 16C20 14.9 20.9 14 22 14H30C31.1 14 32 14.9 32 16V48C32 48 30 46 26 46C22 46 20 48 20 48V16Z" fill="white" opacity="0.95"/>
  <path d="M44 16C44 14.9 43.1 14 42 14H34C32.9 14 32 14.9 32 16V48C32 48 34 46 38 46C42 46 44 48 44 48V16Z" fill="white" opacity="0.8"/>
  <!-- Pen accent -->
  <path d="M38 20L42 24L28 38H24V34L38 20Z" fill="#F6AB10" opacity="0.9"/>
</svg>
